<?xml version="1.0" encoding="utf-8"?>
<!-- Generator: Adobe Illustrator 27.7.0, SVG Export Plug-In . SVG Version: 6.00 Build 0)  -->
<svg version="1.2" baseProfile="tiny" id="Layer_1" xmlns="http://www.w3.org/2000/svg" xmlns:xlink="http://www.w3.org/1999/xlink"
	 x="0px" y="0px" viewBox="0 0 100 100" overflow="visible" xml:space="preserve">
<g>
	<path fill="#FFFFFF" d="M16.54,58.38c0.16-0.21,0.31-0.43,0.47-0.63c2.21-2.72,5.31-4.63,8.71-5.39c0.27-0.15,0.52-0.28,0.78-0.4
		c0.04-0.02,0.07-0.06,0.08-0.11c0.02-0.2,0.06-0.4,0.09-0.6c-0.47-0.89-0.9-1.79-1.28-2.74c-2.36-5.87-2.77-12.21-1.2-18.33
		c1.06-4.12,3.02-7.98,5.67-11.24c-0.75,0.23-1.5,0.5-2.23,0.81C14.73,25.13,8.54,40.2,13.81,53.34
		C14.54,55.15,15.47,56.82,16.54,58.38z"/>
	<path id="XMLID_67_" fill="#FFFFFF" d="M82.73,56.76c-0.37-0.28-0.63-0.67-0.76-1.11c-1.96-6.76-8.24-11.48-15.29-11.48
		c-1.3,0-2.59,0.16-3.84,0.47c-0.87,0.21-1.77-0.13-2.28-0.86c-3.29-4.78-8.71-7.63-14.5-7.63c-4.4,0-8.61,1.63-11.86,4.6
		c-3.23,2.95-5.23,6.96-5.64,11.29c-0.07,0.75-0.53,1.41-1.21,1.73c-0.21,0.1-0.42,0.21-0.63,0.33c-0.18,0.1-0.37,0.17-0.57,0.22
		c-2.97,0.66-5.66,2.33-7.59,4.7c-1.98,2.43-3.03,5.38-3.03,8.51c0,7.46,6.11,13.54,13.61,13.54h45.32
		c7.51,0,13.61-6.07,13.61-13.54C88.07,63.27,86.12,59.35,82.73,56.76z"/>
</g>
</svg>
