<?xml version="1.0" encoding="utf-8"?>
<!-- Generator: Adobe Illustrator 27.7.0, SVG Export Plug-In . SVG Version: 6.00 Build 0)  -->
<svg version="1.2" baseProfile="tiny" id="Layer_1" xmlns="http://www.w3.org/2000/svg" xmlns:xlink="http://www.w3.org/1999/xlink"
	 x="0px" y="0px" viewBox="0 0 100 100" overflow="visible" xml:space="preserve">
<g>
	<path id="XMLID_73_" fill="#FFFFFF" d="M80.56,33.69c-0.37-0.28-0.63-0.67-0.76-1.11c-1.96-6.76-8.24-11.48-15.29-11.48
		c-1.3,0-2.59,0.16-3.84,0.47c-0.86,0.21-1.77-0.13-2.28-0.86c-3.29-4.78-8.71-7.63-14.5-7.63c-4.4,0-8.61,1.63-11.86,4.6
		c-3.23,2.95-5.23,6.96-5.64,11.29c-0.07,0.75-0.53,1.41-1.21,1.73c-0.21,0.1-0.42,0.21-0.63,0.33c-0.18,0.1-0.37,0.17-0.57,0.22
		c-2.97,0.66-5.66,2.33-7.59,4.7c-1.98,2.43-3.03,5.38-3.03,8.51c0,7.46,6.11,13.54,13.61,13.54h45.32
		c7.51,0,13.61-6.07,13.61-13.54C85.91,40.2,83.96,36.28,80.56,33.69z"/>
	<path id="XMLID_7_" fill="#FFFFFF" d="M79.99,67.2c0-1.18-0.96-2.14-2.14-2.14H21.67c-1.18,0-2.14,0.96-2.14,2.14
		c0,1.18,0.96,2.14,2.14,2.14h56.18C79.03,69.34,79.99,68.38,79.99,67.2z"/>
	<path id="XMLID_6_" fill="#FFFFFF" d="M74.75,82.65H18.58c-1.18,0-2.14,0.96-2.14,2.14c0,1.18,0.96,2.14,2.14,2.14h56.18
		c1.18,0,2.14-0.96,2.14-2.14C76.89,83.61,75.94,82.65,74.75,82.65z"/>
	<path id="XMLID_5_" fill="#FFFFFF" d="M31.3,73.97c-1.18,0-2.14,0.96-2.14,2.14c0,1.18,0.96,2.14,2.14,2.14h20.59
		c1.18,0,2.14-0.96,2.14-2.14c0-1.18-0.96-2.14-2.14-2.14H31.3z"/>
	<path id="XMLID_4_" fill="#FFFFFF" d="M84.51,73.97H63.92c-1.18,0-2.14,0.96-2.14,2.14c0,1.18,0.96,2.14,2.14,2.14h20.59
		c1.18,0,2.14-0.96,2.14-2.14C86.64,74.93,85.69,73.97,84.51,73.97z"/>
</g>
</svg>
