<?xml version="1.0" encoding="utf-8"?>
<!-- Generator: Adobe Illustrator 27.7.0, SVG Export Plug-In . SVG Version: 6.00 Build 0)  -->
<svg version="1.2" baseProfile="tiny" id="Layer_1" xmlns="http://www.w3.org/2000/svg" xmlns:xlink="http://www.w3.org/1999/xlink"
	 x="0px" y="0px" viewBox="0 0 100 100" overflow="visible" xml:space="preserve">
<g>
	<path id="XMLID_28_" fill="#FFFFFF" d="M22.94,50c0-1.18-0.96-2.14-2.14-2.14h-9.06c-1.18,0-2.14,0.96-2.14,2.14
		c0,1.18,0.96,2.14,2.14,2.14h9.06C21.98,52.14,22.94,51.18,22.94,50z"/>
	<g>
		
			<ellipse id="XMLID_66_" transform="matrix(0.9821 -0.1882 0.1882 0.9821 -8.5172 10.3045)" fill="#FFFFFF" cx="50" cy="50" rx="20.1" ry="20.1"/>
		<path id="XMLID_34_" fill="#FFFFFF" d="M47.86,20.8c0,1.18,0.96,2.14,2.14,2.14c1.18,0,2.14-0.96,2.14-2.14v-9.06
			c0-1.18-0.96-2.14-2.14-2.14c-1.18,0-2.14,0.96-2.14,2.14V20.8z"/>
		<path id="XMLID_33_" fill="#FFFFFF" d="M47.86,79.2v9.06c0,1.18,0.96,2.14,2.14,2.14c1.18,0,2.14-0.96,2.14-2.14V79.2
			c0-1.18-0.96-2.14-2.14-2.14C48.82,77.06,47.86,78.02,47.86,79.2z"/>
		<path id="XMLID_32_" fill="#FFFFFF" d="M35.4,26.85c0.36,0,0.73-0.09,1.07-0.29c1.02-0.59,1.37-1.9,0.78-2.92l-4.53-7.85
			c-0.59-1.02-1.9-1.37-2.92-0.78c-1.02,0.59-1.37,1.9-0.78,2.92l4.53,7.85C33.94,26.47,34.66,26.85,35.4,26.85z"/>
		<path id="XMLID_31_" fill="#FFFFFF" d="M63.53,73.43c-1.02,0.59-1.37,1.9-0.78,2.92l4.53,7.85c0.4,0.69,1.12,1.07,1.85,1.07
			c0.36,0,0.73-0.09,1.07-0.29c1.02-0.59,1.37-1.9,0.78-2.92l-4.53-7.85C65.86,73.19,64.55,72.84,63.53,73.43z"/>
		<path id="XMLID_30_" fill="#FFFFFF" d="M15.01,29.8c-0.59,1.02-0.24,2.33,0.78,2.92l7.85,4.53c0.34,0.19,0.7,0.29,1.07,0.29
			c0.74,0,1.46-0.38,1.85-1.07c0.59-1.02,0.24-2.33-0.78-2.92l-7.85-4.53C16.91,28.43,15.6,28.78,15.01,29.8z"/>
		<path id="XMLID_29_" fill="#FFFFFF" d="M84.2,67.28l-7.85-4.53c-1.02-0.59-2.33-0.24-2.92,0.78c-0.59,1.02-0.24,2.33,0.78,2.92
			l7.85,4.53c0.34,0.19,0.7,0.29,1.07,0.29c0.74,0,1.46-0.38,1.85-1.07C85.58,69.18,85.23,67.87,84.2,67.28z"/>
		<path id="XMLID_27_" fill="#FFFFFF" d="M88.26,47.86H79.2c-1.18,0-2.14,0.96-2.14,2.14c0,1.18,0.96,2.14,2.14,2.14h9.06
			c1.18,0,2.14-0.96,2.14-2.14C90.4,48.82,89.44,47.86,88.26,47.86z"/>
		<path id="XMLID_26_" fill="#FFFFFF" d="M23.64,62.75l-7.85,4.53c-1.02,0.59-1.37,1.9-0.78,2.92c0.4,0.69,1.12,1.07,1.85,1.07
			c0.36,0,0.73-0.09,1.07-0.29l7.85-4.53c1.02-0.59,1.37-1.9,0.78-2.92C25.98,62.51,24.67,62.16,23.64,62.75z"/>
		<path id="XMLID_25_" fill="#FFFFFF" d="M82.06,29.02l-7.85,4.53c-1.02,0.59-1.37,1.9-0.78,2.92c0.4,0.69,1.12,1.07,1.85,1.07
			c0.36,0,0.73-0.09,1.07-0.29l7.85-4.53c1.02-0.59,1.37-1.9,0.78-2.92C84.39,28.78,83.09,28.43,82.06,29.02z"/>
		<path id="XMLID_24_" fill="#FFFFFF" d="M33.55,74.22l-4.53,7.85c-0.59,1.02-0.24,2.33,0.78,2.92c0.34,0.19,0.7,0.29,1.07,0.29
			c0.74,0,1.46-0.38,1.85-1.07l4.53-7.85c0.59-1.02,0.24-2.33-0.78-2.92C35.45,72.84,34.14,73.19,33.55,74.22z"/>
		<path id="XMLID_23_" fill="#FFFFFF" d="M63.53,26.57c0.34,0.19,0.7,0.29,1.07,0.29c0.74,0,1.46-0.38,1.85-1.07l4.53-7.85
			c0.59-1.02,0.24-2.33-0.78-2.92c-1.02-0.59-2.33-0.24-2.92,0.78l-4.53,7.85C62.16,24.67,62.51,25.98,63.53,26.57z"/>
	</g>
</g>
</svg>
