<?xml version="1.0" encoding="utf-8"?>
<!-- Generator: Adobe Illustrator 27.7.0, SVG Export Plug-In . SVG Version: 6.00 Build 0)  -->
<svg version="1.2" baseProfile="tiny" id="Layer_1" xmlns="http://www.w3.org/2000/svg" xmlns:xlink="http://www.w3.org/1999/xlink"
	 x="0px" y="0px" viewBox="0 0 100 100" overflow="visible" xml:space="preserve">
<g>
	<path id="XMLID_78_" fill="#FFFFFF" d="M40.58,55.7c-3.14-7.66-3.69-15.94-1.6-23.93C40.39,26.4,43,21.36,46.53,17.1
		c-1,0.31-1.99,0.66-2.97,1.06C26.41,25.19,18.17,44.85,25.2,62c3.4,8.31,9.84,14.79,18.12,18.26c8.28,3.47,17.42,3.51,25.72,0.1
		c0.98-0.4,1.93-0.84,2.86-1.33c-5.5-0.56-10.9-2.32-15.67-5.16C49.13,69.65,43.72,63.37,40.58,55.7z"/>
	<polygon id="XMLID_15_" fill="#FFFFFF" points="57.88,52.62 56.38,58.2 61.72,55.99 66.56,59.14 66.11,53.38 70.6,49.75 
		64.98,48.4 62.92,43.01 59.9,47.93 54.13,48.23 	"/>
	<polygon id="XMLID_14_" fill="#FFFFFF" points="73.61,30.2 71.41,27.23 70.39,30.79 66.89,31.97 69.96,34.03 70,37.73 72.91,35.45 
		76.44,36.55 75.17,33.08 77.31,30.06 	"/>
</g>
</svg>
