<?xml version="1.0" encoding="utf-8"?>
<!-- Generator: Adobe Illustrator 27.7.0, SVG Export Plug-In . SVG Version: 6.00 Build 0)  -->
<svg version="1.2" baseProfile="tiny" id="Layer_1" xmlns="http://www.w3.org/2000/svg" xmlns:xlink="http://www.w3.org/1999/xlink"
	 x="0px" y="0px" viewBox="0 0 100 100" overflow="visible" xml:space="preserve">
<g>
	<path id="XMLID_67_" fill="#FFFFFF" d="M88.9,56.47c-0.37-0.28-0.63-0.67-0.76-1.11c-1.96-6.76-8.24-11.48-15.29-11.48
		c-1.3,0-2.59,0.16-3.84,0.47c-0.87,0.21-1.77-0.13-2.28-0.86c-3.29-4.78-8.71-7.63-14.5-7.63c-4.4,0-8.61,1.63-11.86,4.6
		c-3.23,2.95-5.23,6.96-5.64,11.29c-0.07,0.75-0.53,1.41-1.21,1.73c-0.21,0.1-0.42,0.21-0.63,0.33c-0.18,0.1-0.37,0.17-0.57,0.22
		c-2.97,0.66-5.66,2.33-7.59,4.7c-1.98,2.43-3.03,5.38-3.03,8.51c0,7.46,6.11,13.54,13.61,13.54h45.32
		c7.51,0,13.61-6.07,13.61-13.54C94.24,62.98,92.29,59.06,88.9,56.47z"/>
	<path id="XMLID_65_" fill="#FFFFFF" d="M21.77,45.89c0,2.67,0.99,5.19,2.75,7.13c1.82-1.37,3.9-2.4,6.11-2.99
		c0.77-4.88,3.17-9.36,6.85-12.73c0.17-0.16,0.35-0.31,0.53-0.46c-1.66-1.04-3.59-1.59-5.6-1.59
		C26.54,35.25,21.77,40.02,21.77,45.89z"/>
	<path id="XMLID_55_" fill="#FFFFFF" d="M32.41,29.53c1.18,0,2.14-0.96,2.14-2.14v-6.02c0-1.18-0.96-2.14-2.14-2.14
		c-1.18,0-2.14,0.96-2.14,2.14v6.02C30.27,28.57,31.23,29.53,32.41,29.53z"/>
	<path id="XMLID_54_" fill="#FFFFFF" d="M21.31,30.94c0.4,0.69,1.12,1.07,1.85,1.07c0.36,0,0.73-0.09,1.07-0.29
		c1.02-0.59,1.37-1.9,0.78-2.92l-3.01-5.21c-0.59-1.02-1.9-1.37-2.92-0.78c-1.02,0.59-1.37,1.9-0.78,2.92L21.31,30.94z"/>
	<path id="XMLID_53_" fill="#FFFFFF" d="M10.11,35.48l5.21,3.01c0.34,0.19,0.7,0.29,1.07,0.29c0.74,0,1.46-0.38,1.85-1.07
		c0.59-1.02,0.24-2.33-0.78-2.92l-5.21-3.01c-1.02-0.59-2.33-0.24-2.92,0.78C8.74,33.58,9.09,34.89,10.11,35.48z"/>
	<path id="XMLID_52_" fill="#FFFFFF" d="M7.9,48.02h6.02c1.18,0,2.14-0.96,2.14-2.14c0-1.18-0.96-2.14-2.14-2.14H7.9
		c-1.18,0-2.14,0.96-2.14,2.14C5.76,47.07,6.72,48.02,7.9,48.02z"/>
	<path id="XMLID_51_" fill="#FFFFFF" d="M18.25,54.06c-0.59-1.02-1.9-1.37-2.92-0.78l-5.21,3.01c-1.02,0.59-1.37,1.9-0.78,2.92
		c0.4,0.69,1.12,1.07,1.85,1.07c0.36,0,0.73-0.09,1.07-0.29l5.21-3.01C18.49,56.39,18.84,55.09,18.25,54.06z"/>
	<path id="XMLID_50_" fill="#FFFFFF" d="M40.59,31.72c0.34,0.19,0.7,0.29,1.07,0.29c0.74,0,1.46-0.38,1.85-1.07l3.01-5.21
		c0.59-1.02,0.24-2.33-0.78-2.92c-1.02-0.59-2.33-0.24-2.92,0.78L39.8,28.8C39.21,29.82,39.56,31.13,40.59,31.72z"/>
</g>
</svg>
