<?xml version="1.0" encoding="utf-8"?>
<!-- Generator: Adobe Illustrator 27.7.0, SVG Export Plug-In . SVG Version: 6.00 Build 0)  -->
<svg version="1.2" baseProfile="tiny" id="Layer_1" xmlns="http://www.w3.org/2000/svg" xmlns:xlink="http://www.w3.org/1999/xlink"
	 x="0px" y="0px" viewBox="0 0 100 100" overflow="visible" xml:space="preserve">
<g>
	<path id="XMLID_68_" fill="#FFFFFF" d="M27.34,72.45h45.32c7.51,0,13.61-6.07,13.61-13.54c0-4.25-1.95-8.17-5.35-10.75
		c-0.37-0.28-0.63-0.67-0.76-1.11c-1.96-6.76-8.24-11.48-15.29-11.48c-1.3,0-2.59,0.16-3.84,0.47c-0.86,0.21-1.77-0.13-2.28-0.86
		c-3.29-4.78-8.71-7.63-14.5-7.63c-4.4,0-8.61,1.63-11.86,4.6c-3.23,2.95-5.23,6.96-5.64,11.29c-0.07,0.75-0.53,1.41-1.21,1.73
		c-0.21,0.1-0.43,0.21-0.63,0.33c-0.18,0.1-0.37,0.17-0.57,0.22c-2.97,0.66-5.66,2.33-7.59,4.7c-1.98,2.43-3.03,5.38-3.03,8.51
		C13.72,66.38,19.83,72.45,27.34,72.45z"/>
</g>
</svg>
