<?xml version="1.0" encoding="utf-8"?>
<!-- Generator: Adobe Illustrator 27.7.0, SVG Export Plug-In . SVG Version: 6.00 Build 0)  -->
<svg version="1.2" baseProfile="tiny" id="Layer_1" xmlns="http://www.w3.org/2000/svg" xmlns:xlink="http://www.w3.org/1999/xlink"
	 x="0px" y="0px" viewBox="0 0 100 100" overflow="visible" xml:space="preserve">
<g>
	<path id="XMLID_76_" fill="#FFFFFF" d="M38.97,47.08c0-8.41,7.61-15.25,16.96-15.25c2.02,0,3.98,0.31,5.84,0.93
		c1.93-1.98,4.44-3.4,7.21-4.13c-2.47-4.99-7.64-8.3-13.34-8.3c-1.21,0-2.42,0.15-3.59,0.44c-0.87,0.21-1.77-0.13-2.28-0.86
		c-3.08-4.47-8.14-7.14-13.56-7.14c-4.12,0-8.06,1.53-11.09,4.3c-3.02,2.76-4.89,6.51-5.28,10.56c-0.07,0.75-0.53,1.41-1.21,1.73
		c-0.2,0.09-0.4,0.2-0.59,0.3c-0.18,0.1-0.37,0.17-0.57,0.22c-2.77,0.62-5.29,2.17-7.08,4.38c-1.85,2.27-2.82,5.02-2.82,7.94
		c0,6.97,5.7,12.63,12.71,12.63h15.26c0.42-2.6,1.61-5.05,3.47-7.09C38.97,47.52,38.97,47.3,38.97,47.08z"/>
	<path id="XMLID_38_" fill="#FFFFFF" d="M26.28,87.24c0.21,0,0.42-0.03,0.63-0.09c1.13-0.35,1.76-1.54,1.42-2.67l-2.58-8.4
		c-0.35-1.13-1.54-1.76-2.67-1.42c-1.13,0.35-1.76,1.54-1.42,2.67l2.58,8.4C24.51,86.65,25.36,87.24,26.28,87.24z"/>
	<path id="XMLID_37_" fill="#FFFFFF" d="M44.19,87.24c0.21,0,0.42-0.03,0.63-0.09c1.13-0.35,1.76-1.54,1.42-2.67l-2.58-8.4
		c-0.35-1.13-1.54-1.76-2.67-1.42c-1.13,0.35-1.76,1.54-1.42,2.67l2.58,8.4C42.43,86.65,43.27,87.24,44.19,87.24z"/>
	<path id="XMLID_36_" fill="#FFFFFF" d="M62.1,87.24c0.21,0,0.42-0.03,0.63-0.09c1.13-0.35,1.76-1.54,1.42-2.67l-2.58-8.4
		c-0.35-1.13-1.54-1.76-2.67-1.42c-1.13,0.35-1.76,1.54-1.42,2.67l2.58,8.4C60.34,86.65,61.18,87.24,62.1,87.24z"/>
	<path id="XMLID_35_" fill="#FFFFFF" d="M85.12,47.44c-1.11-0.4-1.68-1.63-1.28-2.74c0.33-0.91,0.5-1.86,0.5-2.83
		c0-4.06-2.96-7.53-7.12-8.9c-1.22-0.4-2.55-0.63-3.93-0.63c-0.73,0-1.44,0.06-2.14,0.18c-2.85,0.49-5.4,1.93-7.06,4.07
		c-0.6,0.77-1.64,1.04-2.54,0.65c-1.76-0.76-3.65-1.14-5.63-1.14c-6.99,0-12.68,4.92-12.68,10.97c0,0.39,0.02,0.79,0.07,1.18
		c0.08,0.67-0.15,1.34-0.64,1.8c-1.41,1.36-2.37,3-2.8,4.76c-0.17,0.69-0.26,1.4-0.26,2.12c0,0.74,0.09,1.46,0.27,2.16
		c1.15,4.65,5.94,8.14,11.65,8.14h28.99c6.57,0,11.92-4.62,11.92-10.3C92.45,52.78,89.57,49.05,85.12,47.44z"/>
</g>
</svg>
