<?xml version="1.0" encoding="utf-8"?>
<!-- Generator: Adobe Illustrator 27.7.0, SVG Export Plug-In . SVG Version: 6.00 Build 0)  -->
<svg version="1.2" baseProfile="tiny" id="Layer_1" xmlns="http://www.w3.org/2000/svg" xmlns:xlink="http://www.w3.org/1999/xlink"
	 x="0px" y="0px" viewBox="0 0 100 100" overflow="visible" xml:space="preserve">
<g>
	<path id="XMLID_80_" fill="#FFFFFF" d="M21.77,34.69c0,2.67,0.99,5.19,2.75,7.13c1.82-1.37,3.9-2.4,6.11-2.99
		c0.77-4.88,3.17-9.36,6.85-12.73c0.17-0.16,0.35-0.31,0.53-0.46c-1.66-1.03-3.59-1.59-5.6-1.59
		C26.54,24.06,21.77,28.83,21.77,34.69z"/>
	<path id="XMLID_64_" fill="#FFFFFF" d="M88.9,45.28c-0.37-0.28-0.63-0.67-0.76-1.11c-1.96-6.76-8.24-11.48-15.29-11.48
		c-1.3,0-2.59,0.16-3.84,0.47c-0.86,0.21-1.77-0.13-2.28-0.86c-3.29-4.78-8.71-7.63-14.5-7.63c-4.4,0-8.61,1.63-11.86,4.6
		c-3.23,2.95-5.23,6.96-5.64,11.29c-0.07,0.75-0.53,1.41-1.21,1.73c-0.21,0.1-0.42,0.21-0.63,0.33c-0.18,0.1-0.37,0.17-0.57,0.22
		c-2.97,0.66-5.66,2.33-7.59,4.7c-1.98,2.43-3.03,5.38-3.03,8.51c0,7.46,6.11,13.54,13.61,13.54h45.32
		c7.51,0,13.61-6.07,13.61-13.54C94.24,51.79,92.29,47.87,88.9,45.28z"/>
	<path id="XMLID_49_" fill="#FFFFFF" d="M41.34,91.96c0.21,0,0.42-0.03,0.63-0.09c1.13-0.35,1.76-1.54,1.42-2.67l-2.58-8.4
		c-0.35-1.13-1.54-1.76-2.67-1.42c-1.13,0.35-1.76,1.54-1.42,2.67l2.58,8.4C39.58,91.37,40.43,91.96,41.34,91.96z"/>
	<path id="XMLID_48_" fill="#FFFFFF" d="M59.25,91.96c0.21,0,0.42-0.03,0.63-0.09c1.13-0.35,1.76-1.54,1.42-2.67l-2.58-8.4
		c-0.35-1.13-1.54-1.76-2.67-1.42c-1.13,0.35-1.76,1.54-1.42,2.67l2.58,8.4C57.49,91.37,58.34,91.96,59.25,91.96z"/>
	<path id="XMLID_47_" fill="#FFFFFF" d="M77.17,91.96c0.21,0,0.42-0.03,0.63-0.09c1.13-0.35,1.76-1.54,1.42-2.67l-2.58-8.4
		c-0.35-1.13-1.54-1.76-2.67-1.42c-1.13,0.35-1.76,1.54-1.42,2.67l2.58,8.4C75.4,91.37,76.25,91.96,77.17,91.96z"/>
	<path id="XMLID_46_" fill="#FFFFFF" d="M30.27,10.18v6.02c0,1.18,0.96,2.14,2.14,2.14c1.18,0,2.14-0.96,2.14-2.14v-6.02
		c0-1.18-0.96-2.14-2.14-2.14C31.23,8.04,30.27,9,30.27,10.18z"/>
	<path id="XMLID_45_" fill="#FFFFFF" d="M23.16,20.82c0.36,0,0.73-0.09,1.07-0.29c1.02-0.59,1.37-1.9,0.78-2.92l-3.01-5.21
		c-0.59-1.02-1.9-1.37-2.92-0.78c-1.02,0.59-1.37,1.9-0.78,2.92l3.01,5.21C21.71,20.43,22.42,20.82,23.16,20.82z"/>
	<path id="XMLID_44_" fill="#FFFFFF" d="M17.46,23.59l-5.21-3.01c-1.02-0.59-2.33-0.24-2.92,0.78c-0.59,1.02-0.24,2.33,0.78,2.92
		l5.21,3.01c0.34,0.19,0.7,0.29,1.07,0.29c0.74,0,1.46-0.38,1.85-1.07C18.84,25.49,18.49,24.18,17.46,23.59z"/>
	<path id="XMLID_43_" fill="#FFFFFF" d="M16.05,34.69c0-1.18-0.96-2.14-2.14-2.14H7.9c-1.18,0-2.14,0.96-2.14,2.14
		c0,1.18,0.96,2.14,2.14,2.14h6.02C15.1,36.83,16.05,35.87,16.05,34.69z"/>
	<path id="XMLID_42_" fill="#FFFFFF" d="M17.46,45.79c1.02-0.59,1.37-1.9,0.78-2.92c-0.59-1.02-1.9-1.37-2.92-0.78l-5.21,3.01
		c-1.02,0.59-1.37,1.9-0.78,2.92c0.4,0.69,1.12,1.07,1.85,1.07c0.36,0,0.73-0.09,1.07-0.29L17.46,45.79z"/>
	<path id="XMLID_41_" fill="#FFFFFF" d="M40.59,20.53c0.34,0.19,0.7,0.29,1.07,0.29c0.74,0,1.46-0.38,1.85-1.07l3.01-5.21
		c0.59-1.02,0.24-2.33-0.78-2.92c-1.02-0.59-2.33-0.24-2.92,0.78l-3.01,5.21C39.21,18.63,39.56,19.94,40.59,20.53z"/>
</g>
</svg>
