<?xml version="1.0" encoding="utf-8"?>
<!-- Generator: Adobe Illustrator 27.7.0, SVG Export Plug-In . SVG Version: 6.00 Build 0)  -->
<svg version="1.2" baseProfile="tiny" id="Layer_1" xmlns="http://www.w3.org/2000/svg" xmlns:xlink="http://www.w3.org/1999/xlink"
	 x="0px" y="0px" viewBox="0 0 100 100" overflow="visible" xml:space="preserve">
<g>
	<path fill="#FFFFFF" d="M80.93,37.63c-0.37-0.28-0.63-0.67-0.76-1.11c-1.96-6.76-8.24-11.48-15.29-11.48
		c-1.3,0-2.59,0.16-3.84,0.47c-0.86,0.21-1.77-0.13-2.28-0.86c-3.29-4.78-8.71-7.63-14.5-7.63c-4.4,0-8.61,1.63-11.86,4.6
		c-3.23,2.95-5.23,6.96-5.64,11.29c-0.07,0.75-0.53,1.41-1.21,1.73c-0.21,0.1-0.42,0.21-0.63,0.33c-0.18,0.1-0.37,0.17-0.57,0.22
		c-2.97,0.66-5.66,2.33-7.59,4.7c-1.98,2.43-3.03,5.38-3.03,8.51c0,7.46,6.11,13.54,13.61,13.54h17.74l0.6-2.41h-13L43.56,27.5
		h16.33l-7.01,18.92h15.36l-10.17,15.5h14.6c7.51,0,13.61-6.07,13.61-13.54C86.28,44.14,84.33,40.21,80.93,37.63z"/>
	<polygon id="XMLID_40_" fill="#FFFFFF" points="50,48.42 57.01,29.5 44.99,29.5 35.47,57.51 48.25,57.51 47.14,61.92 46.07,66.2 
		41.86,82.99 52.87,66.2 55.67,61.92 64.53,48.42 	"/>
</g>
</svg>
