<?xml version="1.0" encoding="utf-8"?>
<!-- Generator: Adobe Illustrator 27.7.0, SVG Export Plug-In . SVG Version: 6.00 Build 0)  -->
<svg version="1.2" baseProfile="tiny" id="Layer_1" xmlns="http://www.w3.org/2000/svg" xmlns:xlink="http://www.w3.org/1999/xlink"
	 x="0px" y="0px" viewBox="0 0 100 100" overflow="visible" xml:space="preserve">
<g>
	<g>
		<polygon fill="#FFFFFF" points="90,47.27 75.39,47.27 81.02,41.64 77.16,37.79 67.68,47.27 54.72,47.27 61.2,36.06 74.16,32.58 
			72.75,27.31 65.06,29.38 72.36,16.72 67.64,14 60.33,26.65 58.27,18.96 53,20.37 56.48,33.33 50,44.55 43.52,33.33 47,20.37 
			41.73,18.96 39.67,26.65 32.36,14 27.64,16.72 34.94,29.38 27.25,27.31 25.84,32.58 38.8,36.06 45.28,47.27 32.32,47.27 
			22.84,37.79 18.98,41.64 24.61,47.27 10,47.27 10,52.73 24.61,52.73 18.98,58.36 22.84,62.21 32.32,52.73 45.28,52.73 38.8,63.94 
			25.84,67.42 27.25,72.69 34.94,70.62 27.64,83.28 32.36,86 39.67,73.35 41.73,81.04 47,79.63 43.52,66.67 50,55.45 56.48,66.67 
			53,79.63 58.27,81.04 60.33,73.35 67.64,86 72.36,83.28 65.06,70.62 72.75,72.69 74.16,67.42 61.2,63.94 54.72,52.73 67.68,52.73 
			77.16,62.21 81.02,58.36 75.39,52.73 90,52.73 		"/>
	</g>
</g>
</svg>
